<svg width="20" height="20" viewBox="0 0 20 20" fill="none" xmlns="http://www.w3.org/2000/svg">
<path d="M18.5021 3.44824H1.49785C0.670586 3.44824 0 4.11883 0 4.94609V7.42809H20V4.94609C20 4.11883 19.3294 3.44824 18.5021 3.44824Z" fill="#0099B5"/>
<path d="M0 15.0538C0 15.881 0.670586 16.5516 1.49785 16.5516H18.5021C19.3294 16.5516 20 15.881 20 15.0538V12.5718H0V15.0538Z" fill="#73AF00"/>
<path d="M20 7.97266H0V12.027H20V7.97266Z" fill="white"/>
<path d="M0 7.81599V7.97263H20V7.81599V7.42798H0V7.81599Z" fill="#E52E30"/>
<path d="M0 12.1837V12.5717H20V12.1837V12.0271H0V12.1837Z" fill="#E52E30"/>
</svg>
