<svg width="19" height="18" viewBox="0 0 19 18" fill="none" xmlns="http://www.w3.org/2000/svg">
<path d="M16.6024 15.7501H2.39745C2.26297 15.7539 2.12995 15.7214 2.0124 15.6559C1.89486 15.5905 1.79715 15.4945 1.72958 15.3782C1.66201 15.2619 1.62707 15.1294 1.62846 14.9949C1.62984 14.8604 1.6675 14.7287 1.73745 14.6138L8.85045 2.28756C8.91628 2.17356 9.01095 2.07889 9.12497 2.01307C9.23898 1.94725 9.3683 1.9126 9.49995 1.9126C9.63159 1.9126 9.76092 1.94725 9.87493 2.01307C9.98894 2.07889 10.0836 2.17356 10.1494 2.28756L17.2624 14.6138C17.3324 14.7287 17.3701 14.8604 17.3714 14.9949C17.3728 15.1294 17.3379 15.2619 17.2703 15.3782C17.2027 15.4945 17.105 15.5905 16.9875 15.6559C16.87 15.7214 16.7369 15.7539 16.6024 15.7501Z" fill="url(#paint0_linear_284_14224)"/>
<g opacity="0.5">
<path opacity="0.5" d="M16.6024 15.7501H2.39745C2.26297 15.7539 2.12995 15.7214 2.0124 15.6559C1.89486 15.5905 1.79715 15.4945 1.72958 15.3782C1.66201 15.2619 1.62707 15.1294 1.62846 14.9949C1.62984 14.8604 1.6675 14.7287 1.73745 14.6138L8.85045 2.28756C8.91628 2.17356 9.01095 2.07889 9.12497 2.01307C9.23898 1.94725 9.3683 1.9126 9.49995 1.9126C9.63159 1.9126 9.76092 1.94725 9.87493 2.01307C9.98894 2.07889 10.0836 2.17356 10.1494 2.28756L17.2624 14.6138C17.3324 14.7287 17.3701 14.8604 17.3714 14.9949C17.3728 15.1294 17.3379 15.2619 17.2703 15.3782C17.2027 15.4945 17.105 15.5905 16.9875 15.6559C16.87 15.7214 16.7369 15.7539 16.6024 15.7501Z" fill="url(#paint1_linear_284_14224)"/>
<path opacity="0.5" d="M16.6024 15.7501H2.39745C2.26297 15.7539 2.12995 15.7214 2.0124 15.6559C1.89486 15.5905 1.79715 15.4945 1.72958 15.3782C1.66201 15.2619 1.62707 15.1294 1.62846 14.9949C1.62984 14.8604 1.6675 14.7287 1.73745 14.6138L8.85045 2.28756C8.91628 2.17356 9.01095 2.07889 9.12497 2.01307C9.23898 1.94725 9.3683 1.9126 9.49995 1.9126C9.63159 1.9126 9.76092 1.94725 9.87493 2.01307C9.98894 2.07889 10.0836 2.17356 10.1494 2.28756L17.2624 14.6138C17.3324 14.7287 17.3701 14.8604 17.3714 14.9949C17.3728 15.1294 17.3379 15.2619 17.2703 15.3782C17.2027 15.4945 17.105 15.5905 16.9875 15.6559C16.87 15.7214 16.7369 15.7539 16.6024 15.7501Z" fill="url(#paint2_linear_284_14224)"/>
<path opacity="0.5" d="M16.6024 15.7501H2.39745C2.26297 15.7539 2.12995 15.7214 2.0124 15.6559C1.89486 15.5905 1.79715 15.4945 1.72958 15.3782C1.66201 15.2619 1.62707 15.1294 1.62846 14.9949C1.62984 14.8604 1.6675 14.7287 1.73745 14.6138L8.85045 2.28756C8.91628 2.17356 9.01095 2.07889 9.12497 2.01307C9.23898 1.94725 9.3683 1.9126 9.49995 1.9126C9.63159 1.9126 9.76092 1.94725 9.87493 2.01307C9.98894 2.07889 10.0836 2.17356 10.1494 2.28756L17.2624 14.6138C17.3324 14.7287 17.3701 14.8604 17.3714 14.9949C17.3728 15.1294 17.3379 15.2619 17.2703 15.3782C17.2027 15.4945 17.105 15.5905 16.9875 15.6559C16.87 15.7214 16.7369 15.7539 16.6024 15.7501Z" fill="url(#paint3_linear_284_14224)"/>
</g>
<path d="M10.25 13.125C10.25 13.2733 10.206 13.4183 10.1236 13.5417C10.0412 13.665 9.92406 13.7611 9.78701 13.8179C9.64997 13.8747 9.49917 13.8895 9.35368 13.8606C9.2082 13.8317 9.07456 13.7602 8.96967 13.6553C8.86478 13.5504 8.79335 13.4168 8.76441 13.2713C8.73547 13.1258 8.75032 12.975 8.80709 12.838C8.86386 12.7009 8.95999 12.5838 9.08332 12.5014C9.20666 12.419 9.35166 12.375 9.5 12.375C9.69891 12.375 9.88968 12.454 10.0303 12.5947C10.171 12.7353 10.25 12.9261 10.25 13.125ZM9.84725 6.375H9.15275C9.10118 6.37487 9.05014 6.38538 9.00282 6.40587C8.95549 6.42635 8.9129 6.45638 8.87771 6.49408C8.84252 6.53177 8.81547 6.57631 8.79828 6.62493C8.78108 6.67355 8.77409 6.72519 8.77775 6.77663L9.09913 11.2766C9.10587 11.3714 9.14834 11.4601 9.21795 11.5247C9.28756 11.5894 9.37911 11.6252 9.47413 11.625H9.52588C9.62089 11.6252 9.71245 11.5894 9.78205 11.5247C9.85166 11.4601 9.89413 11.3714 9.90088 11.2766L10.2223 6.77663C10.2259 6.72519 10.2189 6.67355 10.2017 6.62493C10.1845 6.57631 10.1575 6.53177 10.1223 6.49408C10.0871 6.45638 10.0445 6.42635 9.99718 6.40587C9.94986 6.38538 9.89882 6.37487 9.84725 6.375Z" fill="url(#paint4_linear_284_14224)"/>
<defs>
<linearGradient id="paint0_linear_284_14224" x1="9.49995" y1="1.91294" x2="9.49995" y2="15.7501" gradientUnits="userSpaceOnUse">
<stop stop-color="#FFD782"/>
<stop offset="0.161" stop-color="#FED57C"/>
<stop offset="0.372" stop-color="#FCCE6C"/>
<stop offset="0.61" stop-color="#F9C351"/>
<stop offset="0.867" stop-color="#F4B42B"/>
<stop offset="1" stop-color="#F1AB15"/>
</linearGradient>
<linearGradient id="paint1_linear_284_14224" x1="9.49995" y1="1.91294" x2="9.49995" y2="15.7501" gradientUnits="userSpaceOnUse">
<stop stop-color="#FFD375" stop-opacity="0"/>
<stop offset="0.382" stop-color="#FFD374" stop-opacity="0.01"/>
<stop offset="0.52" stop-color="#FED171" stop-opacity="0.039"/>
<stop offset="0.619" stop-color="#FCCE6B" stop-opacity="0.092"/>
<stop offset="0.698" stop-color="#FACA63" stop-opacity="0.167"/>
<stop offset="0.766" stop-color="#F7C458" stop-opacity="0.265"/>
<stop offset="0.826" stop-color="#F3BD4A" stop-opacity="0.387"/>
<stop offset="0.881" stop-color="#EFB53B" stop-opacity="0.531"/>
<stop offset="0.931" stop-color="#E9AC28" stop-opacity="0.7"/>
<stop offset="0.975" stop-color="#E4A214" stop-opacity="0.884"/>
<stop offset="1" stop-color="#E09B07"/>
</linearGradient>
<linearGradient id="paint2_linear_284_14224" x1="58.0673" y1="576.415" x2="524.018" y2="257.9" gradientUnits="userSpaceOnUse">
<stop stop-color="#FFD375" stop-opacity="0"/>
<stop offset="0.382" stop-color="#FFD374" stop-opacity="0.01"/>
<stop offset="0.52" stop-color="#FED171" stop-opacity="0.039"/>
<stop offset="0.619" stop-color="#FCCE6B" stop-opacity="0.092"/>
<stop offset="0.698" stop-color="#FACA63" stop-opacity="0.167"/>
<stop offset="0.766" stop-color="#F7C458" stop-opacity="0.265"/>
<stop offset="0.826" stop-color="#F3BD4A" stop-opacity="0.387"/>
<stop offset="0.881" stop-color="#EFB53B" stop-opacity="0.531"/>
<stop offset="0.931" stop-color="#E9AC28" stop-opacity="0.7"/>
<stop offset="0.975" stop-color="#E4A214" stop-opacity="0.884"/>
<stop offset="1" stop-color="#E09B07"/>
</linearGradient>
<linearGradient id="paint3_linear_284_14224" x1="690.151" y1="590.405" x2="230.59" y2="250.874" gradientUnits="userSpaceOnUse">
<stop stop-color="#FFD375" stop-opacity="0"/>
<stop offset="0.382" stop-color="#FFD374" stop-opacity="0.01"/>
<stop offset="0.52" stop-color="#FED171" stop-opacity="0.039"/>
<stop offset="0.619" stop-color="#FCCE6B" stop-opacity="0.092"/>
<stop offset="0.698" stop-color="#FACA63" stop-opacity="0.167"/>
<stop offset="0.766" stop-color="#F7C458" stop-opacity="0.265"/>
<stop offset="0.826" stop-color="#F3BD4A" stop-opacity="0.387"/>
<stop offset="0.881" stop-color="#EFB53B" stop-opacity="0.531"/>
<stop offset="0.931" stop-color="#E9AC28" stop-opacity="0.7"/>
<stop offset="0.975" stop-color="#E4A214" stop-opacity="0.884"/>
<stop offset="1" stop-color="#E09B07"/>
</linearGradient>
<linearGradient id="paint4_linear_284_14224" x1="9.5" y1="6.375" x2="9.5" y2="13.875" gradientUnits="userSpaceOnUse">
<stop stop-color="#4A4A4A"/>
<stop offset="1" stop-color="#212121"/>
</linearGradient>
</defs>
</svg>
