<svg width="2369" height="703" viewBox="0 0 2369 703" fill="none" xmlns="http://www.w3.org/2000/svg">
<path d="M1463.77 130.67C1499.85 130.67 1529.09 101.418 1529.09 65.3349C1529.09 29.2514 1499.85 0 1463.77 0C1427.7 0 1398.45 29.2514 1398.45 65.3349C1398.45 101.418 1427.7 130.67 1463.77 130.67Z" fill="url(#paint0_linear_60_531)" fill-opacity="0.06"/>
<path d="M1234.15 172.106H1141.29V564.531H1234.15V386.078C1234.15 368.979 1238.27 351.953 1245.44 336.175C1256.84 311.094 1276.48 290.672 1301.09 278.307C1323.42 267.091 1348.62 263.117 1373.2 266.83V172.865C1334.08 169.564 1294.6 177.084 1259.2 194.868C1250.48 199.25 1242.12 204.194 1234.15 209.665V172.106Z" fill="url(#paint1_linear_60_531)" fill-opacity="0.06"/>
<path fill-rule="evenodd" clip-rule="evenodd" d="M1002.63 564.531H1095.5V172.106H1002.63V182.876C967.352 158.163 924.393 143.663 878.052 143.663C757.954 143.663 660.6 241.04 660.6 361.163C660.6 481.29 757.954 578.667 878.052 578.667C924.393 578.667 967.352 564.167 1002.63 539.454V564.531ZM878.052 482.807C945.212 482.807 999.663 428.343 999.663 361.163C999.663 293.986 945.212 239.522 878.052 239.522C810.887 239.522 756.437 293.986 756.437 361.163C756.437 428.343 810.887 482.807 878.052 482.807Z" fill="url(#paint2_linear_60_531)" fill-opacity="0.06"/>
<path fill-rule="evenodd" clip-rule="evenodd" d="M1975.65 361.163C1975.65 481.29 1878.3 578.667 1758.2 578.667C1638.11 578.667 1540.75 481.29 1540.75 361.163C1540.75 241.04 1638.11 143.663 1758.2 143.663C1878.3 143.663 1975.65 241.04 1975.65 361.163ZM1758.2 482.807C1825.36 482.807 1879.82 428.343 1879.82 361.163C1879.82 293.986 1825.36 239.522 1758.2 239.522C1691.04 239.522 1636.59 293.986 1636.59 361.163C1636.59 428.343 1691.04 482.807 1758.2 482.807Z" fill="url(#paint3_linear_60_531)" fill-opacity="0.06"/>
<path d="M1509.89 172.106H1417.03V582.149C1417.03 589.566 1414.08 596.675 1408.84 601.922C1403.59 607.166 1396.49 610.112 1389.07 610.112C1381.66 610.112 1374.54 607.166 1369.3 601.922C1364.06 596.675 1361.11 589.566 1361.11 582.149H1268.25C1268.25 614.202 1280.98 644.939 1303.64 667.602C1326.3 690.266 1357.03 703 1389.07 703C1421.12 703 1451.85 690.266 1474.5 667.602C1497.04 645.067 1509.75 614.545 1509.89 582.689C1509.89 582.569 1509.89 582.449 1509.89 582.329V172.106Z" fill="url(#paint4_linear_60_531)" fill-opacity="0.06"/>
<path d="M2216.07 149.091C2173.33 149.091 2131.09 166.562 2101.45 195.147V172.955H2008.79V564.531H2101.45V321.332C2101.45 270.731 2142.46 229.713 2193.05 229.713C2243.64 229.713 2284.65 270.731 2284.65 321.332V564.531H2369V291.418C2369 212.811 2294.65 149.091 2216.07 149.091Z" fill="url(#paint5_linear_60_531)" fill-opacity="0.06"/>
<path d="M480.933 154.66C474.34 153.854 467.623 153.443 460.812 153.443H442.929C386.305 153.443 336.355 182.057 306.757 225.622C284.347 182.722 239.442 153.443 187.7 153.443C150.678 153.443 117.153 168.432 92.8663 192.677V172.608H0V564.531H92.8663V335.395C92.8663 329.363 93.4792 323.476 94.6409 317.786C102.785 277.977 137.998 248.033 180.207 248.033C222.587 248.033 257.921 278.23 265.872 318.284C266.97 323.819 267.544 329.538 267.544 335.395V564.531H364.534V331.699C364.534 320.149 366.874 309.143 371.105 299.131C383.806 269.102 413.532 248.033 448.18 248.033C459.805 248.033 470.877 250.404 480.933 254.692V154.66Z" fill="url(#paint6_linear_60_531)" fill-opacity="0.06"/>
<path d="M531.83 437.553V564.531H625.339V318.005C625.339 252.651 587.25 196.193 532.066 169.632V437.553H531.83Z" fill="url(#paint7_linear_60_531)" fill-opacity="0.06"/>
<defs>
<linearGradient id="paint0_linear_60_531" x1="1184.5" y1="-235.855" x2="1184.5" y2="575.182" gradientUnits="userSpaceOnUse">
<stop stop-color="white"/>
<stop offset="1" stop-color="white" stop-opacity="0"/>
</linearGradient>
<linearGradient id="paint1_linear_60_531" x1="1184.5" y1="-235.855" x2="1184.5" y2="575.182" gradientUnits="userSpaceOnUse">
<stop stop-color="white"/>
<stop offset="1" stop-color="white" stop-opacity="0"/>
</linearGradient>
<linearGradient id="paint2_linear_60_531" x1="1184.5" y1="-235.855" x2="1184.5" y2="575.182" gradientUnits="userSpaceOnUse">
<stop stop-color="white"/>
<stop offset="1" stop-color="white" stop-opacity="0"/>
</linearGradient>
<linearGradient id="paint3_linear_60_531" x1="1184.5" y1="-235.855" x2="1184.5" y2="575.182" gradientUnits="userSpaceOnUse">
<stop stop-color="white"/>
<stop offset="1" stop-color="white" stop-opacity="0"/>
</linearGradient>
<linearGradient id="paint4_linear_60_531" x1="1184.5" y1="-235.855" x2="1184.5" y2="575.182" gradientUnits="userSpaceOnUse">
<stop stop-color="white"/>
<stop offset="1" stop-color="white" stop-opacity="0"/>
</linearGradient>
<linearGradient id="paint5_linear_60_531" x1="1184.5" y1="-235.855" x2="1184.5" y2="575.182" gradientUnits="userSpaceOnUse">
<stop stop-color="white"/>
<stop offset="1" stop-color="white" stop-opacity="0"/>
</linearGradient>
<linearGradient id="paint6_linear_60_531" x1="1184.5" y1="-235.855" x2="1184.5" y2="575.182" gradientUnits="userSpaceOnUse">
<stop stop-color="white"/>
<stop offset="1" stop-color="white" stop-opacity="0"/>
</linearGradient>
<linearGradient id="paint7_linear_60_531" x1="1184.5" y1="-235.855" x2="1184.5" y2="575.182" gradientUnits="userSpaceOnUse">
<stop stop-color="white"/>
<stop offset="1" stop-color="white" stop-opacity="0"/>
</linearGradient>
</defs>
</svg>
