<svg width="120" height="36" viewBox="0 0 120 36" fill="none" xmlns="http://www.w3.org/2000/svg">
<path d="M74.1456 6.69148C75.973 6.69148 77.4543 5.19354 77.4543 3.34574C77.4543 1.49794 75.973 0 74.1456 0C72.3183 0 70.8369 1.49794 70.8369 3.34574C70.8369 5.19354 72.3183 6.69148 74.1456 6.69148Z" fill="#59DEBE"/>
<path d="M62.5146 8.81348H57.8105V28.9092H62.5146V19.7708C62.5146 18.8952 62.7233 18.0233 63.0865 17.2153C63.6639 15.9309 64.6585 14.8851 65.9053 14.2519C67.0363 13.6776 68.313 13.474 69.558 13.6642V8.85234C67.5763 8.68328 65.5766 9.06839 63.7831 9.97911C63.3417 10.2035 62.9183 10.4567 62.5146 10.7368V8.81348Z" fill="#190A35"/>
<path fill-rule="evenodd" clip-rule="evenodd" d="M50.7884 28.9092H55.4925V8.81348H50.7884V9.36502C49.0012 8.09948 46.8251 7.35693 44.4778 7.35693C38.3943 7.35693 33.4629 12.3435 33.4629 18.4949C33.4629 24.6465 38.3943 29.6331 44.4778 29.6331C46.8251 29.6331 49.0012 28.8906 50.7884 27.625V28.9092ZM44.4778 24.7242C47.8797 24.7242 50.6379 21.9352 50.6379 18.4949C50.6379 15.0549 47.8797 12.2658 44.4778 12.2658C41.0756 12.2658 38.3174 15.0549 38.3174 18.4949C38.3174 21.9352 41.0756 24.7242 44.4778 24.7242Z" fill="#190A35"/>
<path fill-rule="evenodd" clip-rule="evenodd" d="M100.075 18.4949C100.075 24.6465 95.1441 29.6331 89.0608 29.6331C82.9773 29.6331 78.0459 24.6465 78.0459 18.4949C78.0459 12.3435 82.9773 7.35693 89.0608 7.35693C95.1441 7.35693 100.075 12.3435 100.075 18.4949ZM89.0606 24.7242C92.4627 24.7242 95.2209 21.9352 95.2209 18.4949C95.2209 15.0549 92.4627 12.2658 89.0606 12.2658C85.6586 12.2658 82.9004 15.0549 82.9004 18.4949C82.9004 21.9352 85.6586 24.7242 89.0606 24.7242Z" fill="#190A35"/>
<path d="M76.4825 8.81348H71.7785V29.8114C71.7785 30.1912 71.6293 30.5552 71.3638 30.824C71.098 31.0925 70.738 31.2433 70.3624 31.2433C69.9867 31.2433 69.6265 31.0925 69.361 30.824C69.0954 30.5552 68.9463 30.1912 68.9463 29.8114H64.2422C64.2422 31.4528 64.8871 33.0268 66.0348 34.1874C67.1825 35.348 68.7391 36.0001 70.3624 36.0001C71.9856 36.0001 73.5422 35.348 74.6899 34.1874C75.8314 33.0334 76.4754 31.4704 76.4825 29.839C76.4825 29.8329 76.4825 29.8268 76.4825 29.8206V29.8114V8.81348Z" fill="#190A35"/>
<path d="M112.254 7.63477C110.089 7.63477 107.949 8.52947 106.448 9.99326V8.85683H101.754V28.9091H106.448V16.4551C106.448 13.8639 108.525 11.7633 111.088 11.7633C113.65 11.7633 115.728 13.8639 115.728 16.4551V28.9091H120V14.9232C120 10.8978 116.234 7.63477 112.254 7.63477Z" fill="#190A35"/>
<path d="M24.3613 7.92026C24.0274 7.87899 23.6871 7.85791 23.3421 7.85791H22.4362C19.568 7.85791 17.0378 9.32324 15.5385 11.5542C14.4034 9.35728 12.1288 7.85791 9.50781 7.85791C7.63248 7.85791 5.93432 8.62549 4.70407 9.86709V8.83934H0V28.9094H4.70407V17.1755C4.70407 16.8666 4.73512 16.5652 4.79397 16.2738C5.20651 14.2352 6.99021 12.7018 9.12827 12.7018C11.275 12.7018 13.0648 14.2482 13.4676 16.2993C13.5232 16.5827 13.5522 16.8756 13.5522 17.1755V28.9094H18.4652V16.9863C18.4652 16.3948 18.5837 15.8312 18.7981 15.3185C19.4414 13.7807 20.9472 12.7018 22.7022 12.7018C23.2911 12.7018 23.8519 12.8232 24.3613 13.0428V7.92026Z" fill="#190A35"/>
<path d="M26.9395 22.4065V28.909H31.6761V16.2846C31.6761 12.9378 29.7467 10.0467 26.9514 8.68652V22.4065H26.9395Z" fill="#190A35"/>
</svg>
