<svg width="196" height="59" viewBox="0 0 196 59" fill="none" xmlns="http://www.w3.org/2000/svg">
<path d="M120.947 10.9665C123.911 10.9665 126.314 8.51155 126.314 5.48324C126.314 2.45493 123.911 0 120.947 0C117.983 0 115.58 2.45493 115.58 5.48324C115.58 8.51155 117.983 10.9665 120.947 10.9665Z" fill="#59DEBE"/>
<path d="M102.079 14.4447H94.4482V47.379H102.079V32.4023C102.079 30.9673 102.418 29.5384 103.007 28.2142C103.944 26.1092 105.557 24.3954 107.58 23.3576C109.414 22.4163 111.486 22.0827 113.505 22.3944V14.5084C110.29 14.2313 107.046 14.8624 104.137 16.355C103.421 16.7227 102.734 17.1376 102.079 17.5968V14.4447Z" fill="white"/>
<path fill-rule="evenodd" clip-rule="evenodd" d="M83.0564 47.3786H90.6874V14.4442H83.0564V15.3481C80.1572 13.2741 76.6271 12.0571 72.8192 12.0571C62.9505 12.0571 54.9507 20.2295 54.9507 30.3108C54.9507 40.3925 62.9505 48.5649 72.8192 48.5649C76.6271 48.5649 80.1572 47.348 83.0564 45.274V47.3786ZM72.8192 40.5199C78.3379 40.5199 82.8123 35.949 82.8123 30.3108C82.8123 24.6731 78.3379 20.1022 72.8192 20.1022C67.3001 20.1022 62.8258 24.6731 62.8258 30.3108C62.8258 35.949 67.3001 40.5199 72.8192 40.5199Z" fill="white"/>
<path fill-rule="evenodd" clip-rule="evenodd" d="M163.011 30.3108C163.011 40.3925 155.011 48.5649 145.143 48.5649C135.274 48.5649 127.274 40.3925 127.274 30.3108C127.274 20.2295 135.274 12.0571 145.143 12.0571C155.011 12.0571 163.011 20.2295 163.011 30.3108ZM145.143 40.5199C150.662 40.5199 155.136 35.949 155.136 30.3108C155.136 24.6731 150.662 20.1022 145.143 20.1022C139.624 20.1022 135.15 24.6731 135.15 30.3108C135.15 35.949 139.624 40.5199 145.143 40.5199Z" fill="white"/>
<path d="M124.738 14.4447H117.107V48.8576C117.107 49.4801 116.865 50.0767 116.435 50.5171C116.003 50.9572 115.419 51.2044 114.81 51.2044C114.201 51.2044 113.616 50.9572 113.186 50.5171C112.755 50.0767 112.513 49.4801 112.513 48.8576H104.882C104.882 51.5476 105.928 54.1273 107.79 56.0293C109.652 57.9314 112.177 59 114.81 59C117.443 59 119.968 57.9314 121.83 56.0293C123.682 54.138 124.727 51.5764 124.738 48.9029C124.738 48.8928 124.738 48.8828 124.738 48.8727V48.8576V14.4447Z" fill="white"/>
<path d="M182.767 12.5119C179.255 12.5119 175.784 13.9782 173.348 16.3772V14.5147H165.734V47.3779H173.348V26.9673C173.348 22.7206 176.718 19.2781 180.875 19.2781C185.032 19.2781 188.402 22.7206 188.402 26.9673V47.3779H195.333V24.4568C195.333 17.8597 189.224 12.5119 182.767 12.5119Z" fill="white"/>
<path d="M40.1863 12.9802C39.6446 12.9125 39.0926 12.878 38.5329 12.878H37.0634C32.4105 12.878 28.306 15.2795 25.8738 18.9357C24.0324 15.3352 20.3425 12.878 16.0907 12.878C13.0485 12.878 10.2937 14.1359 8.29802 16.1708V14.4864H0.666992V47.3787H8.29802V28.1484C8.29802 27.6421 8.34839 27.148 8.44384 26.6705C9.11307 23.3295 12.0066 20.8165 15.475 20.8165C18.9575 20.8165 21.8609 23.3508 22.5143 26.7123C22.6045 27.1768 22.6517 27.6568 22.6517 28.1484V47.3787H30.6215V27.8382C30.6215 26.8688 30.8138 25.9451 31.1615 25.1049C32.2051 22.5847 34.6478 20.8165 37.4949 20.8165C38.4501 20.8165 39.36 21.0155 40.1863 21.3753V12.9802Z" fill="white"/>
<path d="M44.3691 36.7208V47.3775H52.053V26.6877C52.053 21.2029 48.9231 16.4646 44.3885 14.2355V36.7208H44.3691Z" fill="white"/>
</svg>
