<svg width="94" height="24" viewBox="0 0 94 24" fill="none" xmlns="http://www.w3.org/2000/svg">
<path d="M0 5.99999C0 2.68629 2.68629 0 6 0H17.9143C21.228 0 23.9143 2.68629 23.9143 6V18C23.9143 21.3137 21.228 24 17.9143 24H5.99999C2.68629 24 0 21.3137 0 18V5.99999Z" fill="white"/>
<path d="M7.73808 18.3024C11.263 17.8452 13.4003 16.7744 14.165 16.2025C14.3548 16.1066 14.5409 15.9974 14.7218 15.8747C16.958 14.3573 17.5685 11.3426 16.0853 9.14115C14.6022 6.93975 11.587 6.38525 9.35085 7.90265C9.27226 7.95598 9.19567 8.01115 9.12112 8.06808C9.06469 8.09773 9.01004 8.13197 8.95731 8.17098C6.7491 9.80449 5.17179 12.3161 4.55436 13.5674C3.85949 10.4538 5.10049 7.06909 7.92939 5.1495C11.6043 2.65585 16.5672 3.57894 19.0144 7.21126C21.4616 10.8436 20.4664 15.8097 16.7915 18.3033C13.9582 20.2258 10.3594 20.1175 7.73808 18.3024Z" fill="#4286F1"/>
<path fill-rule="evenodd" clip-rule="evenodd" d="M9.61384 9.47324C9.66571 9.43361 9.719 9.3952 9.77369 9.35809C11.3299 8.30212 13.433 8.6953 14.4712 10.2363C15.5094 11.7773 15.0895 13.8825 13.5334 14.9385C13.4075 15.0239 13.278 15.0999 13.1458 15.1665C12.6095 15.5678 11.1019 16.3206 8.61015 16.6289L10.7114 14.6526L4.91388 16.8091L9.2703 11.9184L6.36592 13.4645C6.72909 12.6623 7.86432 10.7553 9.49983 9.54482C9.53652 9.51767 9.57455 9.49385 9.61384 9.47324Z" fill="#4286F1"/>
<path d="M33.3027 21.0467C32.4781 21.0467 31.6788 20.9622 30.9046 20.7933C30.1474 20.6244 29.4995 20.3964 28.9609 20.1093L29.2891 17.0693C29.8613 17.424 30.4923 17.7111 31.1823 17.9307C31.8723 18.1502 32.5202 18.26 33.126 18.26C33.6982 18.26 34.1778 18.1587 34.5649 17.956C34.9519 17.7364 35.1454 17.424 35.1454 17.0187C35.1454 16.6978 35.0108 16.4529 34.7416 16.284C34.4723 16.0982 33.959 15.8702 33.2017 15.6L32.5202 15.3467C31.7966 15.0764 31.2076 14.8231 30.7532 14.5867C30.2988 14.3333 29.8865 13.9533 29.5163 13.4467C29.1461 12.94 28.9609 12.2729 28.9609 11.4453C28.9609 10.128 29.449 9.10622 30.425 8.38C31.4179 7.63689 32.7053 7.26534 34.2872 7.26534C35.5325 7.26534 36.8451 7.51022 38.2251 8L37.7455 11.0147C37.2574 10.7276 36.7021 10.4996 36.0794 10.3307C35.4736 10.1449 34.9014 10.052 34.3629 10.052C33.8076 10.052 33.3616 10.1449 33.025 10.3307C32.7053 10.5164 32.5454 10.7867 32.5454 11.1413C32.5454 11.4791 32.6801 11.7324 32.9493 11.9013C33.2186 12.0702 33.6729 12.2644 34.3124 12.484C34.8173 12.6698 35.1118 12.7796 35.1959 12.8133C35.9027 13.1004 36.4917 13.3791 36.9629 13.6493C37.4341 13.9196 37.8464 14.3249 38.1998 14.8653C38.5532 15.3889 38.7299 16.0644 38.7299 16.892C38.7299 18.2769 38.2335 19.3155 37.2406 20.008C36.2477 20.7004 34.9351 21.0467 33.3027 21.0467Z" fill="white"/>
<path d="M41.3741 2.17334H44.9334V9.52C45.455 8.74311 46.0525 8.17733 46.7256 7.82267C47.3987 7.45111 48.1729 7.26534 49.0479 7.26534C50.4447 7.26534 51.5386 7.68756 52.3295 8.532C53.1205 9.35956 53.5159 10.5164 53.5159 12.0027V20.6667H49.9567V12.56C49.9567 11.8844 49.7884 11.3609 49.4518 10.9893C49.1153 10.6009 48.6609 10.4067 48.0887 10.4067C47.4661 10.4067 46.8686 10.6262 46.2965 11.0653C45.7411 11.4876 45.2868 12.0533 44.9334 12.7627V20.6667H41.3741V2.17334Z" fill="white"/>
<path d="M60.567 21.0467C59.2207 21.0467 58.1521 20.4724 57.3611 19.324C56.5702 18.1755 56.1747 16.6133 56.1747 14.6373C56.1747 12.2391 56.7805 10.4151 57.9922 9.16533C59.2039 7.89867 60.9456 7.26534 63.2175 7.26534C64.4964 7.26534 65.9942 7.468 67.7107 7.87333V20.6667H64.3282L64.4039 18.5893H64.3029C63.8654 19.3831 63.3269 19.9911 62.6874 20.4133C62.0647 20.8355 61.3579 21.0467 60.567 21.0467ZM61.3243 17.9307C61.8459 17.9307 62.3592 17.652 62.8641 17.0947C63.3689 16.5373 63.8401 15.7942 64.2777 14.8653V10.6093C63.7392 10.4573 63.2006 10.3813 62.6621 10.3813C61.6524 10.3813 60.8867 10.7276 60.365 11.42C59.8602 12.1124 59.6077 13.1342 59.6077 14.4853C59.6077 15.5493 59.7592 16.3938 60.0621 17.0187C60.365 17.6267 60.7857 17.9307 61.3243 17.9307Z" fill="white"/>
<path d="M71.1792 7.62H74.7385V9.748H74.9404C75.4284 8.88667 75.9081 8.25333 76.3793 7.848C76.8673 7.44267 77.4731 7.24 78.1967 7.24C78.4997 7.24 78.7521 7.27378 78.954 7.34134L78.5754 11.192C78.1378 11.0738 77.7844 11.0147 77.5152 11.0147C77.1281 11.0147 76.7831 11.0907 76.4802 11.2427C76.1941 11.3947 75.9333 11.5973 75.6977 11.8507C75.4789 12.104 75.1592 12.4924 74.7385 13.016V20.6667H71.1792V7.62Z" fill="white"/>
<path d="M81.1859 2.17334H84.7451V9.52C85.2668 8.74311 85.8642 8.17733 86.5373 7.82267C87.2105 7.45111 87.9846 7.26534 88.8597 7.26534C90.2565 7.26534 91.3503 7.68756 92.1413 8.532C92.9322 9.35956 93.3277 10.5164 93.3277 12.0027V20.6667H89.7684V12.56C89.7684 11.8844 89.6001 11.3609 89.2636 10.9893C88.927 10.6009 88.4726 10.4067 87.9005 10.4067C87.2778 10.4067 86.6804 10.6262 86.1082 11.0653C85.5529 11.4876 85.0985 12.0533 84.7451 12.7627V20.6667H81.1859V2.17334Z" fill="white"/>
</svg>
