<svg xmlns="http://www.w3.org/2000/svg" width="120" height="120" viewBox="0 0 120 120" fill="none">
    <path d="M91.8133 24.375H28.4941C16.0709 24.375 6 33.8165 6 45.4632V75.1378C6 86.7845 16.0709 96.226 28.4941 96.226H91.8133C104.236 96.226 114.307 86.7845 114.307 75.1378V45.4632C114.307 33.8165 104.236 24.375 91.8133 24.375ZM76.6007 61.7443L46.9843 74.9867C46.1951 75.3396 45.2835 74.8002 45.2835 73.9806V46.668C45.2835 45.8367 46.2191 45.298 47.0099 45.6737L76.6264 59.7439C77.5069 60.1622 77.4916 61.346 76.6007 61.7443Z" fill="#F61C0D"/>
    <path d="M76.6007 61.7443L46.9843 74.9867C46.1951 75.3396 45.2835 74.8002 45.2835 73.9806V46.668C45.2835 45.8367 46.2191 45.298 47.0099 45.6737L76.6264 59.7439C77.5069 60.1622 77.4916 61.346 76.6007 61.7443Z" fill="white"/>
</svg>